<?xml version="1.0" encoding="UTF-8" standalone="no"?>
<!DOCTYPE svg PUBLIC "-//W3C//DTD SVG 1.1//EN" "http://www.w3.org/Graphics/SVG/1.1/DTD/svg11.dtd">
<svg width="100%" height="100%" viewBox="0 0 5000 5000" version="1.1" xmlns="http://www.w3.org/2000/svg" xmlns:xlink="http://www.w3.org/1999/xlink" xml:space="preserve" xmlns:serif="http://www.serif.com/" style="fill-rule:evenodd;clip-rule:evenodd;stroke-linejoin:round;stroke-miterlimit:2;">
    <g id="Lock" transform="matrix(1,0,0,1,0,89.7603)">
        <g id="Lock-Body" serif:id="Lock Body" transform="matrix(1.12568,0,0,1.4625,-332.553,-1654.91)">
            <path d="M4007.5,3146.29C4007.5,3101.96 3984.62,3059.44 3943.89,3028.1C3903.16,2996.75 3847.93,2979.14 3790.33,2979.14L1242.26,2979.14C1184.67,2979.14 1129.43,2996.75 1088.7,3028.1C1047.98,3059.44 1025.1,3101.96 1025.1,3146.29L1025.1,4115.77C1025.1,4160.1 1047.98,4202.62 1088.7,4233.96C1129.43,4265.31 1184.67,4282.92 1242.26,4282.92C1793.03,4282.92 3239.57,4282.92 3790.33,4282.92C3847.93,4282.92 3903.16,4265.31 3943.89,4233.96C3984.62,4202.62 4007.5,4160.1 4007.5,4115.77L4007.5,3146.29Z" style="fill:rgb(76,96,133);"/>
        </g>
        <path id="Lock-Top" serif:id="Lock Top" d="M2500,3568.85C2500,3568.85 2500,3568.85 2500,3568.85ZM821.382,1890.23C821.382,963.777 1573.55,211.614 2500,211.614C3419.23,211.614 4166.87,952.089 4178.48,1868.55L4178.62,1890.23L3505.87,1890.23C3505.87,1329.24 3055.15,873.793 2500,873.793C1944.85,873.793 1494.13,1329.24 1494.13,1890.23L1474.35,1890.23L4178.62,1890.23L4178.62,2293.79C4178.62,2348.48 4156.89,2400.93 4118.22,2439.6C4079.55,2478.27 4027.1,2500 3972.4,2500L1763.8,2500L3505.87,2500L3505.87,1890.23L1494.13,1890.23L1494.13,2500L1027.6,2500C972.904,2500 920.453,2478.27 881.781,2439.6C843.108,2400.93 821.382,2348.48 821.382,2293.79L821.382,1890.23Z" style="fill:rgb(76,96,133);"/>
    </g>
</svg>
